<mxfile host="65bd71144e">
    <diagram id="_jJvDMua-DomdGU9ITgS" name="Page-1">
        <mxGraphModel dx="893" dy="389" grid="1" gridSize="10" guides="1" tooltips="1" connect="1" arrows="1" fold="1" page="1" pageScale="1" pageWidth="850" pageHeight="1100" math="0" shadow="0">
            <root>
                <mxCell id="0"/>
                <mxCell id="1" parent="0"/>
                <mxCell id="2" value="Customer" style="shape=umlActor;verticalLabelPosition=bottom;verticalAlign=top;html=1;" vertex="1" parent="1">
                    <mxGeometry x="110" y="290" width="75" height="150" as="geometry"/>
                </mxCell>
                <mxCell id="3" value="Bank Management System" style="verticalLabelPosition=top;verticalAlign=bottom;html=1;shape=mxgraph.basic.frame;dx=10;whiteSpace=wrap;labelPosition=center;align=center;" vertex="1" parent="1">
                    <mxGeometry x="330" y="200" width="190" height="330" as="geometry"/>
                </mxCell>
                <mxCell id="4" value="Check Balance" style="ellipse;whiteSpace=wrap;html=1;" vertex="1" parent="1">
                    <mxGeometry x="355" y="230" width="140" height="40" as="geometry"/>
                </mxCell>
                <mxCell id="7" value="Withdraw Amount" style="ellipse;whiteSpace=wrap;html=1;" vertex="1" parent="1">
                    <mxGeometry x="355" y="290" width="140" height="40" as="geometry"/>
                </mxCell>
                <mxCell id="10" value="Create Account" style="ellipse;whiteSpace=wrap;html=1;" vertex="1" parent="1">
                    <mxGeometry x="355" y="350" width="140" height="40" as="geometry"/>
                </mxCell>
                <mxCell id="13" value="Deposit Amount" style="ellipse;whiteSpace=wrap;html=1;" vertex="1" parent="1">
                    <mxGeometry x="355" y="410" width="140" height="40" as="geometry"/>
                </mxCell>
                <mxCell id="14" value="Transfer Money" style="ellipse;whiteSpace=wrap;html=1;" vertex="1" parent="1">
                    <mxGeometry x="355" y="470" width="140" height="40" as="geometry"/>
                </mxCell>
                <mxCell id="15" value="" style="endArrow=none;startArrow=none;endFill=0;startFill=0;endSize=8;html=1;verticalAlign=bottom;labelBackgroundColor=none;strokeWidth=1;" edge="1" parent="1">
                    <mxGeometry width="160" relative="1" as="geometry">
                        <mxPoint x="200" y="380" as="sourcePoint"/>
                        <mxPoint x="320" y="380" as="targetPoint"/>
                    </mxGeometry>
                </mxCell>
                <mxCell id="16" value="" style="endArrow=none;startArrow=none;endFill=0;startFill=0;endSize=8;html=1;verticalAlign=bottom;labelBackgroundColor=none;strokeWidth=1;" edge="1" parent="1">
                    <mxGeometry width="160" relative="1" as="geometry">
                        <mxPoint x="200" y="380" as="sourcePoint"/>
                        <mxPoint x="320" y="250" as="targetPoint"/>
                    </mxGeometry>
                </mxCell>
                <mxCell id="17" value="" style="endArrow=none;startArrow=none;endFill=0;startFill=0;endSize=8;html=1;verticalAlign=bottom;labelBackgroundColor=none;strokeWidth=1;" edge="1" parent="1">
                    <mxGeometry width="160" relative="1" as="geometry">
                        <mxPoint x="200" y="380" as="sourcePoint"/>
                        <mxPoint x="320" y="310" as="targetPoint"/>
                    </mxGeometry>
                </mxCell>
                <mxCell id="18" value="" style="endArrow=none;startArrow=none;endFill=0;startFill=0;endSize=8;html=1;verticalAlign=bottom;labelBackgroundColor=none;strokeWidth=1;" edge="1" parent="1">
                    <mxGeometry width="160" relative="1" as="geometry">
                        <mxPoint x="200" y="380" as="sourcePoint"/>
                        <mxPoint x="320" y="430" as="targetPoint"/>
                    </mxGeometry>
                </mxCell>
                <mxCell id="19" value="" style="endArrow=none;startArrow=none;endFill=0;startFill=0;endSize=8;html=1;verticalAlign=bottom;labelBackgroundColor=none;strokeWidth=1;" edge="1" parent="1">
                    <mxGeometry width="160" relative="1" as="geometry">
                        <mxPoint x="200" y="380" as="sourcePoint"/>
                        <mxPoint x="320" y="490" as="targetPoint"/>
                    </mxGeometry>
                </mxCell>
            </root>
        </mxGraphModel>
    </diagram>
</mxfile>